<svg height='300px' width='300px'  fill="#20C997" xmlns="http://www.w3.org/2000/svg" viewBox="0 0 27.97 25" x="0px" y="0px"><title>Ресурс 68</title><g data-name=""><g data-name=""><path d="M27.28,5A1,1,0,0,0,26,5.69l-3.15,9.7-.16.29a2,2,0,0,0-.15.3,1,1,0,0,1-.29,0H12.79c-.52,0-.66-.06-1-.68L4.83,1.23A2,2,0,0,0,3,0H1A1,1,0,0,0,1,2L3,2l7,14.22A3.2,3.2,0,0,0,13,18h9a2.54,2.54,0,0,0,2.46-1.35l.19-.33a1,1,0,0,0,.09-.21l3.18-9.81A1,1,0,0,0,27.28,5Z"></path><circle cx="21.5" cy="22.5" r="2.5"></circle><circle cx="12.5" cy="22.5" r="2.5"></circle><path d="M12.27,9.71a1,1,0,0,0,1.41,0L17,6.41l3.29,3.29a1,1,0,0,0,1.41-1.41L18.39,5l3.29-3.29A1,1,0,0,0,20.27.29L17,3.59,13.68.29a1,1,0,0,0-1.41,1.41L15.56,5,12.27,8.29A1,1,0,0,0,12.27,9.71Z"></path></g></g></svg>